<svg aria-hidden="true" style="position: absolute; width: 0; height: 0; overflow: hidden;" version="1.1" xmlns="http://www.w3.org/2000/svg" xmlns:xlink="http://www.w3.org/1999/xlink">
<defs>
<symbol id="decor-bg-4" viewBox="0 0 41 32">
<path d="M33.124 16.205h-0.931c-0.063 0-0.114-0.051-0.114-0.114v-0.931c0-0.063 0.051-0.114 0.114-0.114h0.931c0.063 0 0.114 0.051 0.114 0.114v0.931c0 0.063-0.051 0.114-0.114 0.114z"></path>
<path d="M28.342 3.087h-0.931c-0.063 0-0.114-0.051-0.114-0.114v-0.931c0-0.063 0.051-0.114 0.114-0.114h0.931c0.063 0 0.114 0.051 0.114 0.114v0.931c0 0.063-0.051 0.114-0.114 0.114z"></path>
<path d="M25.023 26.294h-0.851c-0.063 0-0.114-0.051-0.114-0.114v-0.851c0-0.063 0.051-0.114 0.114-0.114h0.851c0.063 0 0.114 0.051 0.114 0.114v0.851c0 0.063-0.051 0.114-0.114 0.114z"></path>
<path d="M38.090 19.753h-1.511c-0.063 0-0.114-0.051-0.114-0.114v-1.511c0-0.063 0.051-0.114 0.114-0.114h1.511c0.063 0 0.114 0.051 0.114 0.114v1.511c0 0.063-0.051 0.114-0.114 0.114z"></path>
<path d="M24.507 9.005h-0.352c-0.063 0-0.114-0.051-0.114-0.114v-0.352c0-0.063 0.051-0.114 0.114-0.114h0.352c0.063 0 0.114 0.051 0.114 0.114v0.352c0 0.063-0.051 0.114-0.114 0.114z"></path>
<path d="M40.602 11.32h-0.352c-0.063 0-0.114-0.051-0.114-0.114v-0.352c0-0.063 0.051-0.114 0.114-0.114h0.352c0.063 0 0.114 0.051 0.114 0.114v0.352c0 0.063-0.051 0.114-0.114 0.114z"></path>
<path d="M11.646 24.715h-0.352c-0.063 0-0.114-0.051-0.114-0.114v-0.352c0-0.063 0.051-0.114 0.114-0.114h0.352c0.063 0 0.114 0.051 0.114 0.114v0.352c0 0.063-0.051 0.114-0.114 0.114z"></path>
<path d="M1.039 31.417h-0.352c-0.063 0-0.114-0.051-0.114-0.114v-0.352c0-0.063 0.051-0.114 0.114-0.114h0.352c0.063 0 0.114 0.051 0.114 0.114v0.352c0 0.063-0.051 0.114-0.114 0.114z"></path>
<path d="M21.633 17.353h-0.931c-0.063 0-0.114-0.051-0.114-0.114v-0.931c0-0.063 0.051-0.114 0.114-0.114h0.931c0.063 0 0.114 0.051 0.114 0.114v0.931c0 0.063-0.051 0.114-0.114 0.114z"></path>
<path d="M12.263 10.681h-0.352c-0.063 0-0.114-0.051-0.114-0.114v-0.352c0-0.063 0.051-0.114 0.114-0.114h0.352c0.063 0 0.114 0.051 0.114 0.114v0.352c0 0.063-0.051 0.114-0.114 0.114z"></path>
</symbol>
</defs>
</svg>
